<?xml version="1.0" encoding="iso-8859-1"?>
<!-- Uploaded to: SVG Repo, www.svgrepo.com, Generator: SVG Repo Mixer Tools -->
<svg fill="#000000" version="1.1" id="Layer_1" xmlns="http://www.w3.org/2000/svg" xmlns:xlink="http://www.w3.org/1999/xlink" 
	 viewBox="0 0 512.002 512.002" xml:space="preserve">
<g>
	<g>
		<g>
			<path d="M509.28,377.755L389.813,266.821c-1.579-1.468-3.652-2.287-5.811-2.287h-42.667v-73.267l36.634,36.634
				c1.664,1.664,3.849,2.5,6.033,2.5c2.185,0,4.369-0.836,6.033-2.5c3.337-3.336,3.337-8.73,0-12.066l-51.191-51.191l-0.017-0.017
				l-31.625-31.625V51.201h8.533c4.71,0,8.533-3.814,8.533-8.533V8.534c0-4.719-3.823-8.533-8.533-8.533h-68.267
				c-4.71,0-8.533,3.814-8.533,8.533v34.133c0,4.719,3.823,8.533,8.533,8.533h8.533v30.601l-53.7-53.7
				c-3.337-3.337-8.73-3.337-12.066,0L53.711,164.626l-0.017,0.017L2.502,215.835c-3.336,3.337-3.336,8.73,0,12.066
				c1.664,1.664,3.849,2.5,6.033,2.5c2.185,0,4.369-0.836,6.033-2.5l36.634-36.634v312.201c0,4.719,3.823,8.533,8.533,8.533h85.333
				v-128c0-4.719,3.823-8.533,8.533-8.533h85.333c4.71,0,8.533,3.814,8.533,8.533v128h85.333h170.667
				c4.71,0,8.533-3.814,8.533-8.533V384.001C512.002,381.629,511.012,379.359,509.28,377.755z M136.535,332.801
				c0,9.412-7.654,17.067-17.067,17.067h-17.067c-9.412,0-17.067-7.654-17.067-17.067v-17.067c0-9.412,7.654-17.067,17.067-17.067
				h17.067c9.412,0,17.067,7.654,17.067,17.067V332.801z M153.602,281.601h-25.6h-25.6c-9.412,0-17.067-7.654-17.067-17.067v-51.2
				c0-9.412,7.654-17.067,17.067-17.067h25.6h25.6c9.412,0,17.067,7.654,17.067,17.067v51.2
				C170.669,273.947,163.014,281.601,153.602,281.601z M221.869,332.801c0,9.412-7.654,17.067-17.067,17.067h-17.067
				c-9.412,0-17.067-7.654-17.067-17.067v-17.067c0-9.412,7.654-17.067,17.067-17.067h17.067c9.412,0,17.067,7.654,17.067,17.067
				V332.801z M307.202,332.801c0,9.412-7.654,17.067-17.067,17.067h-17.067c-9.412,0-17.067-7.654-17.067-17.067v-17.067
				c0-9.412,7.654-17.067,17.067-17.067h17.067c9.412,0,17.067,7.654,17.067,17.067V332.801z M307.202,264.534
				c0,9.412-7.654,17.067-17.067,17.067h-25.6h-25.6c-9.412,0-17.067-7.654-17.067-17.067v-51.2c0-9.412,7.654-17.067,17.067-17.067
				h25.6h25.6c9.412,0,17.067,7.654,17.067,17.067V264.534z M80.335,162.134L196.269,46.201l62.234,62.234l34.133,34.133
				l19.567,19.567H80.335z M407.025,452.268l-23.023,27.631v-55.262L407.025,452.268z M393.688,409.601h48.896l-24.448,29.338
				L393.688,409.601z M393.688,494.934l24.448-29.338l24.448,29.338H393.688z M452.269,479.899l-23.023-27.631l23.023-27.631
				V479.899z M494.935,494.934h-25.6v-93.867c0-0.136-0.068-0.247-0.077-0.375c-0.026-0.606-0.205-1.169-0.35-1.758
				c-0.137-0.503-0.213-1.007-0.427-1.468c-0.213-0.461-0.555-0.845-0.853-1.263c-0.358-0.495-0.674-0.99-1.126-1.391
				c-0.094-0.094-0.137-0.213-0.239-0.307c-0.316-0.256-0.691-0.341-1.033-0.555c-0.503-0.316-0.981-0.631-1.544-0.836
				c-0.58-0.205-1.161-0.273-1.766-0.358c-0.384-0.051-0.717-0.222-1.118-0.222h-85.333c-0.393,0-0.725,0.171-1.101,0.222
				c-0.606,0.077-1.203,0.145-1.792,0.358c-0.555,0.205-1.032,0.521-1.536,0.836c-0.333,0.205-0.717,0.299-1.033,0.555
				c-0.102,0.094-0.145,0.213-0.239,0.307c-0.452,0.401-0.768,0.896-1.126,1.391c-0.299,0.418-0.64,0.802-0.853,1.263
				c-0.213,0.461-0.29,0.964-0.427,1.468c-0.145,0.589-0.324,1.152-0.35,1.758c-0.009,0.128-0.077,0.239-0.077,0.375v93.867h-25.6
				V281.601h39.322L494.935,387.73V494.934z"/>
			<polygon points="102.402,315.734 102.402,332.801 119.477,332.801 119.469,315.734 			"/>
			<polygon points="273.069,315.734 273.069,332.801 290.144,332.801 290.135,315.734 			"/>
			<polygon points="136.535,213.334 136.535,264.534 153.611,264.534 153.602,213.334 			"/>
			<rect x="102.402" y="213.333" width="17.067" height="51.2"/>
			<polygon points="187.735,315.734 187.735,332.801 204.811,332.801 204.802,315.734 			"/>
			<path d="M162.135,426.668h17.067c4.71,0,8.533,3.814,8.533,8.533s-3.823,8.533-8.533,8.533h-17.067v68.267h68.267V392.534
				h-68.267V426.668z"/>
			<polygon points="273.069,213.334 273.069,264.534 290.144,264.534 290.135,213.334 			"/>
			<rect x="238.935" y="213.333" width="17.067" height="51.2"/>
		</g>
	</g>
</g>
</svg>