<?xml version="1.0" encoding="iso-8859-1"?>
<!-- Uploaded to: SVG Repo, www.svgrepo.com, Generator: SVG Repo Mixer Tools -->
<svg fill="#000000" height="800px" width="800px" version="1.1" id="Layer_1" xmlns="http://www.w3.org/2000/svg" xmlns:xlink="http://www.w3.org/1999/xlink" 
	 viewBox="0 0 512 512" xml:space="preserve">
<g>
	<g>
		<path d="M159.006,139.99c-2.402,3.492-6.782,5.155-10.898,4.141c-4.115-1.014-7.217-4.522-7.722-8.728
			c-1.191-9.935-16.679-8.15-15.48,1.853c1.272,10.608,9.096,19.454,19.47,22.012c10.292,2.538,21.472-1.713,27.476-10.442
			C177.528,140.573,164.718,131.684,159.006,139.99z"/>
	</g>
</g>
<g>
	<g>
		<path d="M467.432,374.712c-3.59-19.061-13.062-33.15-25.987-38.655c-4.393-1.873-9.135-2.684-13.897-2.689
			c-3.906-0.004-7.824,0.532-11.576,1.47c11.906-22.092,19.282-46.384,21.602-71.593c6.56-16.267,10.181-34.022,10.181-52.61
			c0-4.305-3.49-7.795-7.795-7.795h-52.831c-4.305,0-7.795,3.49-7.795,7.795s3.49,7.795,7.795,7.795h44.797
			c-3.586,58.208-47.027,105.81-103.3,115.792c-7.246,1.286-14.622,1.933-21.98,1.933h-39.917
			c-32.457,0-58.862-26.406-58.862-58.862c0-32.456,26.406-58.862,58.862-58.862h16.951h72.27c4.305,0,7.795-3.49,7.795-7.795
			s-3.49-7.795-7.795-7.795h-69.084c-7.435-8.256-12.844-25.099-18.543-42.858c-4.258-13.267-8.909-27.755-15.171-41.025
			c11.155-3.22,20.667-11.167,25.874-18.967c6.076-9.102,7.324-18.784,3.424-26.564c-2.409-4.807-7.591-10.435-18.68-13.377
			c1.652-5.152,1.315-10.648-1.214-15.828c-4.848-9.932-18.764-19.484-42.84-17.699c0.038-0.37,0.077-0.741,0.098-1.112
			c0.332-5.786-1.276-14.05-10.817-20.551c-9.145-6.233-21.832-6.475-35.724-0.684c-7.061,2.945-14.072,7.291-20.836,12.919
			c-3.309,2.753-3.76,7.668-1.006,10.979c2.752,3.309,7.668,3.76,10.978,1.006c5.567-4.632,11.241-8.169,16.865-10.514
			c5.132-2.14,14.678-5.092,20.944-0.822c3.748,2.555,4.141,4.859,4.032,6.777c-0.329,5.759-8.645,18.241-20.924,24.691
			c-3.811,2.002-5.278,6.714-3.276,10.526c1.395,2.654,4.103,4.172,6.908,4.172c1.221,0,2.462-0.288,3.618-0.896
			c7.126-3.744,16.189-11.116,22.331-19.912c21.345-3.836,32.976,2.504,35.641,7.961c1.812,3.71-0.671,6.884-3.08,8.898
			c-1.821,1.527-4.194,2.874-7.054,4.004c-4.005,1.581-5.968,6.109-4.386,10.113c1.211,3.064,4.146,4.934,7.253,4.934
			c0.953,0,1.922-0.176,2.861-0.547c3.226-1.274,6.126-2.796,8.665-4.535c8.25,0.806,14.042,3.163,15.708,6.486
			c1.299,2.591,0.381,6.674-2.454,10.921c-4.09,6.127-12.314,12.302-20.693,13.36c-0.565-0.889-1.134-1.775-1.723-2.64
			c-14.021-20.598-32.161-30.612-55.456-30.612c-22.408,0-42.174,5.36-59.147,15.971c2.005-10.919,5.747-21.472,11.11-31.136
			c2.089-3.765,0.732-8.51-3.033-10.598c-3.766-2.089-8.51-0.731-10.598,3.033c-8.818,15.89-13.857,33.846-14.662,52.139
			c-2.888,2.778-5.664,5.764-8.338,8.934c-11.68,0.041-39.131,2.297-49.844,21.713c-0.577,1.047-0.906,2.211-0.961,3.405
			c-0.059,1.289-1.093,29.248,17.928,42.977c-3.75,14.869-5.795,29.107-6.882,41.105c-0.389,4.287,2.772,8.078,7.06,8.467
			c4.275,0.388,8.078-2.772,8.467-7.06c1.518-16.764,4.304-31.224,7.761-43.633c0.05-0.146,0.106-0.288,0.148-0.437
			c2.991-10.664,6.823-21.128,11.76-31.051c0.049-0.099,0.099-0.197,0.149-0.296c17.607-35.211,49.082-57.938,89.084-57.938
			c21.936,0,35.684,11.687,45.643,28.481c0.282,0.694,0.661,1.34,1.122,1.921c7.758,13.766,13.181,30.661,18.525,47.312
			c4.669,14.55,8.923,27.807,14.573,38.094h-1.321c-41.054,0-74.453,33.4-74.453,74.454c0,20.862,8.989,41.062,24.419,55.088
			c13.61,12.373,31.638,19.364,50.034,19.364h39.917c7.121,0,14.211-0.58,21.255-1.601c0.106-0.016,0.213-0.031,0.319-0.048
			c33.104-5.064,62.96-21.634,84.631-46.436c-5.836,16.388-14.172,31.871-24.793,45.928c-6.285,5.16-12.206,11.406-17.454,18.54
			c-19.953-10.162-43.441,1.972-58.464,15.406c-3.755,3.358-7.2,7.017-10.443,10.867c-0.411,0.495-0.823,0.985-1.226,1.489
			c-10.126-20.173-25.783-33.324-41.943-34.575c-0.141-0.011-0.284-0.022-0.425-0.031c-20.054-1.364-35.936,15.422-44.911,31.474
			c-0.021,0.037-0.042,0.076-0.062,0.113c-0.528,0.96-1.047,1.934-1.549,2.93c-0.015,0.029-0.031,0.057-0.046,0.086
			c-13.038-16.287-33.113-31.779-55.021-31.362c-5.2,0.099-10.46,1.238-15.111,3.601c-10.397-14.134-23.429-24.797-36.721-30.391
			c-16.475-26.072-25.619-56.126-26.472-87.087c-0.117-4.303-3.721-7.696-8.006-7.578c-4.304,0.119-7.696,3.703-7.578,8.007
			c0.794,28.842,8.209,56.956,21.549,82.271c-22.988,0.157-35.77,21.002-39.604,41.359c-3.563,18.919-0.932,40.125,7.409,59.711
			c12.079,28.366,32.825,44.634,56.918,44.634c6.983,0,13.834-1.391,20.37-4.118c12.392,22.566,31.077,35.299,52.385,35.299
			c13.354,0,26.543-5.264,36.273-14.395C228.356,506.814,242.207,512,256,512c12.508,0,26.977-4.664,38.031-16.203
			c4.507,4.24,9.766,7.7,15.578,10.175c6.545,2.788,13.642,4.312,20.89,4.311c18.784-0.002,38.562-10.262,52.25-35.34
			c6.531,2.724,13.377,4.113,20.361,4.114c24.088,0,44.834-16.27,56.913-44.634C468.363,414.837,470.995,393.631,467.432,374.712z
			 M91.091,127.197c-3.018,4.999-5.737,10.171-8.186,15.472c-0.031,0.068-0.063,0.136-0.095,0.205
			c-2.775,6.025-5.181,12.149-7.255,18.27c-6.181-7.861-7.135-19.221-7.263-23.652c4.471-6.254,13.659-9.702,23.335-11.2
			C91.446,126.588,91.272,126.898,91.091,127.197z M128.726,378.851c-0.098,0.127-0.194,0.254-0.293,0.379
			c-17.159,21.964-14.984,55.364-6.12,80.157c0.162,0.454,0.317,0.909,0.486,1.363c-4.483,1.803-9.157,2.717-13.903,2.717
			c-17.8,0-32.92-12.484-42.573-35.152c-7.147-16.781-9.43-34.794-6.432-50.717c2.571-13.652,8.842-23.819,16.774-27.197
			c8.656-3.686,18.39-0.291,26.235,3.818c0.099,0.052,0.197,0.104,0.296,0.157c9.345,5.07,18.659,13.39,26.145,23.691
			C129.13,378.322,128.928,378.587,128.726,378.851z M196.284,491.628c-26.879,11.445-49.172-11.352-58.214-34.616
			c-5.147-13.243-7.588-29.225-6.157-43.337c1.4-11.808,5.805-28.04,18.415-32.443c19.742-6.893,40.522,12.765,51.169,27.164
			c0.066,0.09,0.134,0.179,0.201,0.27c1.052,1.435,2.076,2.926,3.074,4.465c0.504,0.776-1.663,6.431-1.902,7.549
			c-1.941,9.056-2.743,18.334-2.429,27.589c0.009,0.286,0.02,0.572,0.031,0.855c0.486,11.641,2.896,23.454,8.322,33.841
			C205.317,486.636,201.064,489.592,196.284,491.628z M373.934,457.008c-9.089,23.392-31.391,46.045-58.216,34.62
			c-4.786-2.038-9.044-4.998-12.524-8.68c2.107-4.021,3.892-8.519,5.274-13.528c0.013-0.048,0.025-0.097,0.038-0.143
			c0.815-2.947,1.456-5.957,1.935-8.977c0.674-4.252-2.227-8.245-6.479-8.919c-4.042-0.64-8.244,2.22-8.92,6.477
			c-1.203,7.575-3.617,15.084-7.852,21.529c-0.023,0.035-0.038,0.075-0.061,0.11c-8.032,12.149-20.212,16.911-31.128,16.911
			c-11.007,0-23.11-4.836-31.099-16.859c-0.033-0.053-0.055-0.11-0.089-0.163c-6.707-10.279-8.854-22.866-8.854-34.956
			c0-21.592,10.778-68.16,40.283-67.627c22.237,0.403,34.677,31.756,38.11,49.591c0.914,4.746,2.742,9.614,8.607,9.288
			c0.265-0.015,0.531-0.043,0.798-0.085c4.252-0.674,7.153-4.667,6.479-8.92c-0.73-4.602-1.741-9.135-3.016-13.521
			c6.815-10.516,15.727-19.924,26.548-26.354c9.841-5.847,23.588-10.608,33.453-2.296c0.039,0.033,0.083,0.061,0.123,0.094
			c0.07,0.059,0.139,0.121,0.209,0.183C386.56,401.464,382.008,436.229,373.934,457.008z M445.68,428.314
			c-9.654,22.668-24.771,35.152-42.572,35.152c-4.748,0-9.422-0.914-13.904-2.717c0.17-0.458,0.327-0.919,0.492-1.378
			c4.102-11.436,6.426-23.561,6.519-35.723c0.194-17.403-4.138-33.338-12.641-44.412c-0.3-0.391-0.598-0.786-0.909-1.167
			c0.454-0.629,0.919-1.246,1.385-1.86c10.453-13.647,32.161-33.952,51.286-25.809C461.955,361.734,454.127,408.479,445.68,428.314z
			"/>
	</g>
</g>
</svg>